HIERARCHY
ROOT Hips
{
	OFFSET 0.000000 0.000000 0.000000 
	CHANNELS 6 Xposition Yposition Zposition Yrotation Zrotation Xrotation 
	JOINT Lumbar
	{
		OFFSET 0.000000 0.000000 0.000000 
		CHANNELS 3 Zrotation Xrotation Yrotation
		JOINT Neck
		{
			OFFSET 0.000000 0.445665 0.000000 
			CHANNELS 3 Zrotation Xrotation Yrotation
			End Site
			{
				OFFSET 0.000000 0.227535 0.000000 
			}
		}
		JOINT RightShoulder
		{
			OFFSET 0.019635 0.377685 0.194865 
			CHANNELS 3 Zrotation Xrotation Yrotation
			JOINT RightElbow
			{
				OFFSET 0.000000 -0.243375 0.000000 
				CHANNELS 2 Zrotation Yrotation
				JOINT RightWrist
				{
					OFFSET 0.000000 -0.264825 0.000000 
					CHANNELS 2 Zrotation Xrotation
					End Site
					{
						OFFSET 0.006600 -0.176220 0.000990 
					}
				}
			}
		}
		JOINT LeftShoulder
		{
			OFFSET 0.019635 0.377685 -0.194865 
			CHANNELS 3 Zrotation Xrotation Yrotation
			JOINT LeftElbow
			{
				OFFSET 0.000000 -0.243375 0.000000 
				CHANNELS 2 Zrotation Yrotation
				JOINT LeftWrist
				{
					OFFSET 0.000000 -0.264825 0.000000 
					CHANNELS 2 Zrotation Xrotation
					End Site
					{
						OFFSET 0.006600 -0.176220 -0.000990 
					}
				}
			}
		}
	}
	JOINT RightHip
	{
		OFFSET 0.052140 -0.069960 0.075570 
		CHANNELS 3 Zrotation Xrotation Yrotation
		JOINT RightKnee
		{
			OFFSET 0.000000 -0.402270 0.000000 
			CHANNELS 1 Zrotation
			JOINT RightAnkle
			{
				OFFSET 0.000000 -0.404085 0.000000 
				CHANNELS 3 Zrotation Xrotation Yrotation
				End Site
				{
					OFFSET 0.204105 -0.089430 0.008415 
				}
			}
		}
	}
	JOINT LeftHip
	{
		OFFSET 0.052140 -0.069960 -0.075570 
		CHANNELS 3 Zrotation Xrotation Yrotation
		JOINT LeftKnee
		{
			OFFSET 0.000000 -0.402270 0.000000 
			CHANNELS 1 Zrotation
			JOINT LeftAnkle
			{
				OFFSET 0.000000 -0.404085 0.000000 
				CHANNELS 3 Zrotation Xrotation Yrotation
				End Site
				{
					OFFSET 0.204105 -0.089430 -0.008415 
				}
			}
		}
	}
}
MOTION
Frames: 26
Frame Time: 0.02
-2e-05 0.95578 0 233.50696 0 -7.18083 4.0584 9.23782 -13.14391 -50.03767 10.07028 12.81974 48.28857 -34.84275 5.13628 13.38393 82.01303 -0.31417 -4.48497 50.93752 0.02497 -0.29917 12.98375 -80.72408 3.40813 3.60327 10.54965 5.52949 22.93091 -15.30148 -15.18018 -1.30094 -7.07284 -8.33916 10.57926 12.03158 -9.42835 1.7248 2.56967 3.86575
0.01271 0.95521 -0.00262 232.11027 0 -7.03033 3.58217 8.87116 -12.82659 -49.34022 9.66937 12.48531 47.61725 -33.98631 5.50038 13.38104 82.07165 -0.19878 -4.56098 50.65223 0.6302 -0.7256 13.20877 -80.78157 3.46796 3.80437 10.98399 5.01022 23.15234 -14.38995 -15.9472 -1.28744 -6.34026 -8.59301 9.72083 12.09978 -8.33724 1.45925 2.67 4.52798
0.02539 0.95464 -0.00525 230.72093 0 -6.88162 3.10933 8.50522 -12.51088 -48.64808 9.27028 12.15181 46.94851 -33.13238 5.86548 13.37639 82.13049 -0.08276 -4.63465 50.3677 1.23348 -1.14735 13.43026 -80.83924 3.52576 4.00273 11.41598 4.49597 23.36601 -13.48699 -16.70769 -1.27369 -5.61746 -8.84426 8.86789 12.16944 -7.25221 1.19454 2.76943 5.18514
0.03796 0.9541 -0.00787 229.34725 0 -6.73866 2.64549 8.13916 -12.20096 -47.9737 8.87685 11.82311 46.2886 -32.28583 6.23391 13.36513 82.18757 0.03662 -4.70057 50.088 1.82943 -1.5406 13.6426 -80.89866 3.58365 4.19117 11.84227 3.99421 23.53642 -12.60112 -17.45079 -1.25805 -4.92963 -9.09073 8.02842 12.25499 -6.176 0.92946 2.86472 5.81852
0.05107 0.95343 -0.0105 227.89046 0 -6.56535 2.13408 7.77439 -11.86332 -47.20922 8.4562 11.47421 45.58802 -31.40704 6.57957 13.38946 82.25013 0.13787 -4.80853 49.78819 2.45774 -2.06831 13.90671 -80.94934 3.65013 4.43105 12.29816 3.42328 23.91877 -11.61479 -18.28753 -1.25154 -4.06013 -9.36627 7.11745 12.26752 -5.04721 0.66494 2.98009 6.566
0.06305 0.95303 -0.01311 226.61101 0 -6.4563 1.72372 7.40681 -11.58263 -46.63335 8.09163 11.16485 44.97002 -30.59268 6.97653 13.33811 82.30362 0.2776 -4.8268 49.52753 3.02136 -2.32229 14.05886 -81.0181 3.69225 4.56267 12.69137 3.00128 23.86414 -10.84869 -18.92432 -1.2263 -3.5733 -9.57751 6.35874 12.42693 -4.03474 0.40045 3.05412 7.07943
0.07208 0.95341 -0.01566 225.80322 0 -6.52911 1.59228 7.02465 -11.47427 -46.60537 7.89394 10.99092 44.60672 -29.9804 7.50274 13.07217 82.31017 0.5293 -4.59458 49.40313 3.37696 -1.69925 13.91329 -81.1434 3.71935 4.38087 12.91225 2.97594 22.45575 -10.63329 -19.01458 -1.14177 -4.19009 -9.63231 6.0137 13.07779 -3.2929 0.12075 3.00087 6.86578
0.07996 0.95407 -0.01818 225.17729 0 -6.66598 1.56305 6.64045 -11.42071 -46.76349 7.75069 10.85266 44.32191 -29.42904 8.08385 12.73087 82.31106 0.81901 -4.27235 49.31326 3.67195 -0.8174 13.65259 -81.28571 3.7136 4.09193 13.06954 3.10316 20.6301 -10.64947 -18.90156 -1.0396 -5.18566 -9.61871 5.82324 13.86375 -2.67658 -0.15634 2.90795 6.42812
0.08828 0.9546 -0.02071 224.47844 0 -6.77089 1.48664 6.26118 -11.33189 -46.81794 7.57413 10.67985 43.98285 -28.83209 8.64832 12.427 82.32948 1.08801 -3.99245 49.18872 4.01563 -0.13706 13.43667 -81.41629 3.68723 3.86156 13.25627 3.17063 19.09118 -10.59825 -18.87862 -0.95035 -5.97779 -9.62225 5.56606 14.53049 -2.0353 -0.42508 2.84196 6.14815
0.09698 0.95514 -0.02325 223.73707 0 -6.88818 1.41212 5.8652 -11.28598 -46.95009 7.43271 10.58138 43.72053 -28.30679 9.1767 12.10852 82.28696 1.37171 -3.70538 49.14298 4.27451 0.88076 13.2519 -81.5644 3.80548 3.59075 13.44241 3.19951 17.14899 -10.39183 -18.86739 -0.84052 -6.90041 -9.68322 5.29407 15.43347 -1.26029 -0.73431 2.73948 5.64184
0.1046 0.95573 -0.02576 223.12946 0 -6.99443 1.35947 5.50338 -11.16471 -46.96827 7.23236 10.34043 43.31923 -27.65177 9.79446 11.80406 82.36724 1.63354 -3.41334 48.94296 4.68998 1.27786 12.97579 -81.6792 3.62153 3.37715 13.61249 3.34269 15.93955 -10.55807 -18.78092 -0.76924 -7.64319 -9.61012 5.08961 15.8862 -0.79168 -0.95827 2.70224 5.54176
0.10967 0.95643 -0.02834 222.82914 0 -7.05837 1.3291 5.23767 -10.813 -46.59518 6.84458 9.66387 42.49634 -26.57998 10.63528 11.54394 82.812 1.82798 -3.11688 48.29455 5.60117 -0.28256 12.46808 -81.70527 2.55223 3.36136 13.77281 3.78408 16.92469 -11.74443 -18.55884 -0.80975 -7.77937 -9.16833 5.0337 14.97797 -1.15453 -0.95057 2.86636 6.72243
0.11368 0.95717 -0.03089 222.66058 0 -7.10825 1.31979 5.00626 -10.38508 -46.10705 6.39779 8.84892 41.53497 -25.38372 11.56549 11.30281 83.37605 1.99857 -2.82085 47.49251 6.66298 -2.44486 11.874 -81.69598 1.19076 3.4044 13.91571 4.33148 18.64886 -13.28883 -18.26413 -0.88949 -7.72448 -8.59705 5.04039 13.62675 -1.81812 -0.85689 3.09535 8.30112
0.1181 0.95788 -0.03338 222.44294 0 -7.16211 1.30928 4.75817 -9.99808 -45.69155 5.98542 8.11924 40.64841 -24.27299 12.46234 11.06152 83.86974 2.17872 -2.53308 46.76965 7.62406 -4.21096 11.32421 -81.69788 0.00195 3.41143 14.05395 4.81737 19.98909 -14.63801 -17.98764 -0.9506 -7.7688 -8.09479 5.01846 12.53515 -2.33379 -0.8001 3.28708 9.62805
0.12282 0.95868 -0.03615 222.1853 0 -7.22851 1.26649 4.51419 -9.58702 -45.19539 5.54266 7.29634 39.71188 -23.0419 13.33292 10.78226 84.43142 2.36604 -2.20677 46.00753 8.71936 -6.47799 10.74844 -81.72044 -1.3556 3.45343 14.24262 5.36507 21.51708 -16.13272 -17.76544 -1.01442 -7.7752 -7.54633 5.00269 11.20634 -2.90243 -0.75114 3.51024 11.24256
0.12665 0.95928 -0.03833 222.04085 0 -7.26444 1.29523 4.27036 -9.20653 -44.83902 5.14874 6.63427 38.84873 -22.0314 14.27561 10.58705 84.87984 2.53172 -1.96164 45.2914 9.57156 -7.85794 10.20862 -81.69202 -2.43164 3.43853 14.32353 5.807 22.8358 -17.40606 -17.41688 -1.08221 -7.80886 -7.06533 4.98691 10.25934 -3.42915 -0.66712 3.68388 12.36033
0.12843 0.95932 -0.03888 222.16887 0 -7.22103 1.51077 4.01441 -8.93546 -44.88303 4.90183 6.4506 38.19493 -21.65891 15.42355 10.62438 84.98676 2.64785 -1.94417 44.73017 9.71634 -6.55725 9.78252 -81.52564 -2.64972 3.24758 14.10587 5.93176 23.38881 -17.9813 -16.72712 -1.15088 -7.97548 -6.79315 4.95561 10.51963 -3.77831 -0.4928 3.70511 11.9684
0.12935 0.95915 -0.03883 222.40741 0 -7.14692 1.79816 3.75839 -8.69658 -45.07335 4.70648 6.43352 37.62494 -21.51316 16.63641 10.74508 84.97555 2.74191 -2.00817 44.22241 9.61122 -4.36069 9.39741 -81.31019 -2.57582 2.99873 13.78142 5.94544 23.70806 -18.31989 -15.91593 -1.22233 -8.17263 -6.59523 4.9216 11.17007 -4.07249 -0.28861 3.6745 11.0715
0.1306 0.95907 -0.03903 222.59888 0 -7.08555 2.05572 3.50492 -8.43814 -45.2047 4.48847 6.33946 37.03334 -21.26372 17.79971 10.82464 85.01809 2.84314 -2.03297 43.69604 9.62059 -2.62972 8.9985 -81.12093 -2.64157 2.77986 13.50994 6.00872 24.14234 -18.7654 -15.16752 -1.293 -8.34616 -6.36988 4.88787 11.61248 -4.38292 -0.10797 3.66762 10.43362
0.13206 0.95899 -0.03931 222.77935 0 -7.02858 2.30192 3.2413 -8.19679 -45.30022 4.26427 6.2451 36.36533 -21.0108 19.04696 10.91849 85.06433 2.95605 -2.0669 43.13929 9.63217 -0.67001 8.57612 -80.91401 -2.68865 2.54743 13.22005 6.07975 24.56929 -19.227 -14.38301 -1.36319 -8.55259 -6.11395 4.85953 12.17088 -4.73904 0.11663 3.66198 9.68495
0.13287 0.95888 -0.03928 223.01022 0 -6.95569 2.58887 2.99924 -7.92988 -45.5068 4.06709 6.19382 35.88077 -20.82299 20.13848 11.00218 85.07349 3.03919 -2.1012 42.66178 9.57674 1.03035 8.21348 -80.73272 -2.70087 2.32882 12.94216 6.10656 24.94106 -19.59319 -13.64754 -1.43425 -8.70245 -5.94021 4.81962 12.58404 -4.9852 0.25708 3.64097 9.04178
0.13222 0.95872 -0.03859 223.32719 0 -6.84314 2.96814 2.80935 -7.57271 -45.9837 3.92325 6.21301 35.862 -20.74086 20.74132 11.03732 85.00655 3.0499 -2.11649 42.38117 9.40554 1.82923 8.00667 -80.63362 -2.69153 2.16161 12.73347 6.04023 25.25978 -19.75946 -13.06318 -1.50931 -8.66899 -5.98343 4.73858 12.51968 -4.9206 0.1451 3.5869 8.81358
0.13094 0.95855 -0.0376 223.69541 0 -6.71638 3.38651 2.64244 -7.19118 -46.56853 3.8071 6.27251 36.03028 -20.72137 21.19245 11.05937 84.90632 3.03069 -2.12937 42.18174 9.17279 2.33395 7.85887 -80.5621 -2.65502 2.01012 12.53844 5.93243 25.51911 -19.83452 -12.53536 -1.58455 -8.58173 -6.10602 4.64765 12.29417 -4.74951 -0.0507 3.51947 8.70704
0.12988 0.95838 -0.03672 224.05637 0 -6.5982 3.78833 2.46958 -6.8291 -47.10414 3.68379 6.31863 36.12583 -20.68498 21.74095 11.08727 84.82238 3.02251 -2.1434 41.9506 8.96275 2.95279 7.68387 -80.47874 -2.62738 1.85181 12.3311 5.84178 25.77479 -19.94638 -11.99124 -1.65798 -8.53341 -6.18748 4.56717 12.13241 -4.63923 -0.20013 3.46 8.54269
0.12905 0.9582 -0.03592 224.35296 0 -6.46965 4.18673 2.27743 -6.43323 -47.6432 3.53786 6.34732 36.16887 -20.60414 22.17286 11.11812 84.72927 3.02457 -2.16002 41.69579 8.76826 3.68067 7.51172 -80.39149 -2.60467 1.6904 12.14709 5.75411 26.15371 -20.07173 -11.4032 -1.73871 -8.4265 -6.29248 4.46086 12.02473 -4.47504 -0.38322 3.39078 8.37139
0.1276 0.95804 -0.0349 224.79516 0 -6.36015 4.60161 2.13133 -6.10092 -48.2017 3.44682 6.42261 36.36904 -20.63216 22.80935 11.13909 84.64917 2.99827 -2.16963 41.51333 8.52757 4.10555 7.34729 -80.3186 -2.56869 1.53964 11.91751 5.65228 26.26281 -20.148 -10.92162 -1.80435 -8.42638 -6.36672 4.40686 11.76021 -4.39824 -0.51676 3.33937 8.25027
